<?xml version="1.0" standalone="no"?>
<!DOCTYPE svg PUBLIC "-//W3C//DTD SVG 20010904//EN"
 "http://www.w3.org/TR/2001/REC-SVG-20010904/DTD/svg10.dtd">
<svg version="1.0" xmlns="http://www.w3.org/2000/svg"
 width="300.000000pt" height="300.000000pt" viewBox="0 0 300.000000 300.000000"
 preserveAspectRatio="xMidYMid meet">
<metadata>
Created by potrace 1.10, written by Peter Selinger 2001-2011
</metadata>
<g transform="translate(0.000000,300.000000) scale(0.100000,-0.100000)"
fill="#000000" stroke="none">
<path d="M363 2985 c-160 -43 -286 -163 -334 -316 -18 -58 -19 -109 -19 -1169
0 -1060 1 -1111 19 -1169 48 -155 175 -274 338 -316 88 -23 1307 -22 1396 1
90 23 154 59 218 123 109 109 139 203 139 434 0 174 -6 199 -60 231 -35 20
-72 20 -110 1 -50 -26 -60 -59 -60 -204 0 -72 -5 -153 -11 -181 -14 -66 -62
-127 -124 -159 l-49 -26 -646 0 c-642 0 -645 0 -685 22 -52 28 -89 68 -114
123 -20 44 -21 60 -21 1120 0 1060 1 1076 21 1120 25 55 62 95 114 123 40 22
43 22 685 22 l646 0 49 -26 c62 -32 110 -93 124 -159 6 -28 11 -109 11 -181 0
-145 10 -178 60 -204 38 -19 75 -19 110 1 54 32 60 57 60 231 0 173 -11 236
-56 325 -33 66 -125 158 -190 191 -112 57 -116 57 -815 56 -521 0 -654 -3
-696 -14z"/>
<path d="M2545 1992 c-54 -18 -85 -60 -85 -116 0 -36 8 -47 105 -146 58 -58
105 -109 105 -113 0 -4 -327 -8 -726 -9 l-726 -3 -29 -33 c-23 -26 -29 -42
-29 -78 0 -39 5 -51 34 -80 l34 -34 721 0 c397 0 721 -3 721 -7 0 -4 -47 -55
-105 -113 -95 -97 -105 -110 -105 -144 0 -95 88 -154 168 -112 15 8 93 81 174
163 173 175 198 216 198 328 0 111 -23 149 -198 324 -90 91 -163 156 -185 166
-39 16 -42 16 -72 7z"/>
</g>
</svg>
