 <svg  version="1.0" xmlns="http://www.w3.org/2000/svg"  width="300.000000pt" height="300.000000pt" viewBox="0 0 300.000000 300.000000"  preserveAspectRatio="xMidYMid meet">  <g transform="translate(0.000000,300.000000) scale(0.100000,-0.100000)" fill="#ffffff" stroke="none"> <path d="M715 2975 c-99 -47 -183 -59 -354 -51 -86 4 -174 7 -196 6 -41 -1 -165 -52 -165 -68 0 -5 30 7 68 26 l67 34 110 -8 c239 -18 354 -5 480 56 33 15 56 28 50 28 -5 0 -32 -10 -60 -23z"/> <path d="M771 2938 c-117 -69 -171 -117 -171 -153 0 -36 30 -39 115 -10 114 38 313 145 385 206 l25 21 -30 -18 c-16 -10 -69 -42 -118 -71 -143 -88 -327 -161 -357 -143 -18 11 -4 45 31 75 17 13 75 52 130 86 85 52 109 69 97 69 -2 0 -50 -28 -107 -62z"/> <path d="M874 2959 c-71 -50 -134 -108 -134 -126 0 -19 7 -17 64 19 28 17 101 58 161 90 61 31 104 58 96 58 -16 0 -179 -86 -258 -137 -103 -65 -24 18 90 96 41 28 55 41 44 41 -2 0 -30 -18 -63 -41z"/> <path d="M1129 2983 c-33 -39 -194 -154 -276 -196 -196 -101 -354 -123 -540 -74 -56 15 -124 27 -151 27 -56 0 -135 -24 -154 -47 -9 -11 0 -9 31 6 72 37 129 37 281 1 113 -27 146 -31 206 -26 198 18 403 117 599 290 22 20 35 36 29 36 -6 0 -18 -7 -25 -17z"/> <path d="M1124 2911 c-104 -100 -232 -190 -332 -232 -138 -57 -420 -85 -562 -55 -41 9 -88 16 -104 16 -35 0 -107 -20 -121 -33 -7 -7 -4 -8 9 -3 73 26 107 28 193 12 152 -28 390 -14 528 30 75 25 191 88 269 146 77 58 236 207 221 207 -5 0 -51 -39 -101 -88z"/> <path d="M1211 2884 c-191 -193 -370 -309 -546 -355 -68 -18 -109 -21 -265 -21 -134 0 -204 4 -253 16 -38 9 -87 15 -110 15 -33 -2 -35 -3 -12 -6 17 -2 64 -11 105 -21 117 -27 448 -23 551 5 185 52 384 190 598 416 107 112 54 75 -68 -49z"/> <path d="M1292 2916 c-122 -143 -307 -294 -436 -355 -184 -86 -378 -112 -656 -86 -176 16 -206 18 -199 11 2 -3 87 -12 187 -22 468 -43 712 42 1027 360 96 96 165 176 152 176 -2 0 -35 -38 -75 -84z"/> <path d="M1310 2888 c-52 -61 -144 -157 -203 -214 -88 -84 -124 -112 -190 -143 -176 -85 -325 -115 -557 -114 -129 0 -186 5 -260 21 -52 12 -96 20 -98 18 -13 -14 184 -46 345 -56 125 -8 179 -7 280 5 187 23 290 67 436 185 75 60 275 261 340 340 20 25 37 40 37 35 0 -15 -158 -210 -245 -303 -128 -136 -229 -203 -360 -237 -106 -27 -303 -48 -394 -41 -106 8 -101 -2 5 -12 49 -5 -23 -7 -186 -5 -166 2 -259 -1 -250 -7 8 -5 88 -7 180 -5 135 3 149 2 75 -5 -92 -8 -255 -36 -263 -45 -9 -8 20 -5 92 10 81 17 244 31 516 45 107 5 220 16 251 23 142 35 329 192 543 457 136 169 136 169 114 151 -10 -7 -61 -68 -115 -135 -174 -219 -353 -381 -486 -441 -59 -27 -177 -46 -275 -44 l-67 2 101 13 c198 25 304 67 423 169 77 65 197 197 291 321 68 89 82 113 58 98 -7 -4 -8 -3 -4 5 4 6 11 9 16 6 5 -3 11 -1 15 5 3 5 -2 10 -12 9 -10 0 -43 -30 -73 -66 -81 -97 -217 -239 -264 -276 -30 -23 -21 -10 34 49 114 122 253 284 248 289 -2 2 -46 -46 -98 -107z m-230 -273 c-27 -32 -184 -129 -253 -155 -71 -28 -251 -59 -264 -46 -3 3 7 6 24 6 104 0 367 102 448 174 41 36 68 49 45 21z"/> <path d="M1554 2973 c-38 -59 -193 -243 -288 -340 -111 -115 -243 -211 -339 -248 -120 -45 -208 -57 -427 -60 -113 -2 -243 -8 -288 -14 -81 -12 -218 -48 -210 -56 2 -3 33 4 67 15 94 28 232 42 451 44 330 5 455 47 669 227 98 82 420 459 393 459 -5 0 -18 -12 -28 -27z"/> <path d="M1595 2928 c-209 -316 -432 -517 -656 -594 -113 -38 -250 -55 -529 -64 -246 -8 -297 -15 -384 -49 -16 -6 -26 -14 -23 -17 3 -3 14 -1 24 4 59 32 146 43 398 52 367 12 483 34 643 121 149 80 283 201 424 384 74 95 161 225 156 231 -3 2 -27 -28 -53 -68z"/> <path d="M1661 2944 c-97 -160 -332 -417 -486 -531 -205 -153 -276 -172 -655 -179 -146 -3 -299 -10 -340 -15 -81 -12 -180 -45 -180 -60 0 -5 12 -3 27 5 82 42 131 48 448 56 171 5 340 14 375 20 146 28 331 142 495 305 105 104 236 259 304 360 61 90 64 95 54 95 -4 0 -23 -26 -42 -56z"/> <path d="M1734 2971 c-12 -14 -43 -57 -70 -96 -174 -251 -326 -408 -512 -531 -48 -32 -112 -74 -142 -93 -42 -28 -55 -42 -55 -61 0 -23 3 -25 50 -24 156 5 480 184 631 350 99 107 324 441 324 479 0 5 -17 -19 -38 -55 -87 -149 -217 -331 -298 -418 -131 -140 -343 -271 -538 -331 -159 -49 -170 -10 -23 83 66 42 79 45 50 14 -12 -13 -23 -32 -25 -43 -2 -17 2 -19 27 -17 68 8 223 101 371 224 141 118 272 270 359 416 41 69 73 128 70 130 -7 7 -5 9 -54 -81 -24 -43 -45 -76 -48 -73 -3 3 13 38 35 79 63 115 24 92 -55 -32 -48 -76 -96 -135 -170 -208 -96 -95 -122 -133 -89 -133 7 0 54 39 105 86 50 47 91 82 91 76 0 -17 -256 -259 -339 -320 -165 -123 -338 -197 -278 -120 6 9 53 40 102 68 137 79 175 111 278 233 51 62 132 153 178 202 83 89 130 156 143 205 4 14 -9 -4 -29 -40 -19 -36 -70 -101 -112 -145 -42 -44 -118 -129 -168 -190 -51 -60 -108 -124 -126 -141 -55 -51 -185 -132 -195 -122 -2 2 43 41 99 85 120 96 171 148 259 263 99 130 220 301 216 304 -1 2 -13 -8 -24 -23z m91 -71 c-14 -28 -23 -55 -19 -61 6 -11 -64 -124 -72 -116 -3 3 11 27 30 55 20 27 36 53 36 57 0 5 -27 -28 -60 -72 -53 -72 -186 -203 -205 -203 -16 0 33 59 111 132 52 50 103 111 139 168 32 49 59 90 61 90 3 0 -7 -23 -21 -50z"/> <path d="M1957 2943 c-40 -66 -131 -243 -164 -319 -65 -147 -328 -351 -554 -428 -182 -62 -317 -67 -584 -24 -89 15 -179 22 -285 22 -162 1 -207 -7 -322 -56 -82 -35 -52 -37 34 -2 156 62 256 65 585 18 94 -13 216 -24 270 -24 278 1 580 143 785 370 58 63 63 73 128 214 22 49 43 87 46 84 3 -4 -1 -19 -9 -35 -8 -15 -22 -55 -31 -88 -29 -100 -90 -178 -246 -310 -167 -141 -350 -251 -458 -274 -82 -17 -517 -14 -638 4 -54 9 -163 18 -241 22 -152 6 -208 -2 -253 -38 -23 -18 -20 -18 20 2 30 15 70 24 122 27 82 5 302 -12 378 -29 25 -6 164 -10 310 -10 295 0 330 5 447 65 109 56 249 158 361 262 140 131 177 180 203 267 28 92 58 153 126 251 29 43 52 81 49 83 -2 2 -27 -32 -56 -76 -29 -45 -54 -81 -56 -81 -10 0 -1 22 37 84 22 37 39 70 36 72 -3 3 -21 -21 -40 -53z"/> <path d="M2049 2977 c-38 -53 -153 -273 -179 -343 -44 -118 -86 -178 -206 -293 -271 -261 -516 -353 -899 -338 -145 5 -350 28 -475 51 -45 9 -109 16 -142 16 -66 0 -148 -17 -148 -32 0 -5 9 -4 20 2 37 20 161 23 250 6 280 -53 655 -68 841 -33 192 36 393 152 570 327 122 121 142 150 193 280 37 93 121 254 177 338 29 43 27 60 -2 19z"/> <path d="M2087 2968 c-33 -44 -62 -104 -93 -191 -15 -39 -57 -133 -95 -207 -80 -158 -150 -244 -291 -357 -119 -95 -199 -142 -324 -193 -93 -37 -120 -42 -320 -66 l-219 -27 -180 17 c-99 9 -229 25 -290 36 -137 25 -179 25 -233 0 -60 -27 -52 -31 17 -6 60 20 60 20 168 2 294 -50 483 -64 634 -47 339 40 385 51 559 142 129 67 309 218 397 334 48 63 148 261 190 380 34 93 57 137 94 180 17 19 26 35 21 35 -6 0 -22 -15 -35 -32z"/> <path d="M2127 2953 c-14 -27 -48 -118 -77 -203 -115 -350 -310 -576 -641 -743 -234 -118 -621 -167 -1089 -137 -198 12 -200 12 -260 -10 -78 -29 -72 -37 6 -9 56 19 68 20 229 10 94 -6 197 -13 231 -16 66 -6 311 9 439 26 192 26 376 81 494 149 210 120 334 228 435 380 88 131 120 197 170 352 24 73 55 157 70 186 34 67 28 79 -7 15z"/> <path d="M2170 2953 c-12 -26 -40 -114 -61 -195 -21 -81 -46 -162 -55 -180 -30 -59 -158 -241 -221 -316 -65 -76 -79 -112 -44 -112 36 0 66 17 146 85 83 69 239 176 410 280 154 93 335 178 504 236 85 29 150 54 144 56 -6 2 -81 -21 -168 -52 -168 -60 -365 -154 -499 -237 -182 -115 -334 -218 -381 -261 -95 -85 -165 -120 -165 -83 0 8 24 41 53 73 83 91 211 275 241 348 8 19 31 97 50 175 20 77 45 159 57 181 11 23 18 43 16 46 -3 2 -15 -17 -27 -44z"/> <path d="M2241 2964 c-48 -190 -66 -246 -101 -330 -42 -98 -48 -146 -18 -152 23 -4 169 59 493 215 154 74 298 141 320 149 22 8 46 17 54 19 8 3 12 8 9 11 -10 9 -133 -43 -373 -161 -294 -143 -491 -229 -506 -219 -16 9 -6 48 40 156 37 86 107 336 97 346 -3 2 -9 -13 -15 -34z"/> <path d="M2304 2955 c-37 -64 -64 -139 -64 -179 0 -118 148 -99 600 76 163 64 166 65 159 73 -3 2 -61 -18 -129 -46 -394 -157 -597 -199 -616 -125 -8 35 19 121 60 189 19 31 31 57 26 57 -5 0 -21 -20 -36 -45z"/> <path d="M2376 2960 c-81 -202 132 -220 505 -43 66 31 119 60 119 65 0 4 -48 -16 -108 -46 -165 -83 -271 -117 -377 -123 -82 -5 -93 -3 -117 17 -34 26 -36 66 -8 128 10 23 15 42 11 42 -5 0 -16 -18 -25 -40z"/> <path d="M2463 2984 c-13 -34 -8 -103 8 -119 27 -27 87 -29 159 -5 64 21 265 129 257 137 -3 2 -53 -24 -113 -57 -123 -68 -200 -95 -249 -86 -48 9 -58 27 -53 91 5 56 2 67 -9 39z"/> <path d="M2540 2957 c0 -72 29 -83 108 -43 59 31 140 86 127 86 -5 0 -30 -14 -55 -31 -65 -43 -116 -69 -139 -69 -23 0 -36 35 -29 75 3 14 1 25 -3 25 -5 0 -9 -19 -9 -43z"/> <path d="M2590 2966 c0 -19 4 -38 10 -41 12 -8 46 10 88 46 46 40 30 36 -25 -6 -25 -19 -50 -35 -56 -35 -5 0 -7 16 -5 35 2 19 0 35 -4 35 -4 0 -8 -15 -8 -34z"/> <path d="M2910 2731 c-85 -29 -314 -127 -413 -177 -80 -41 -275 -161 -336 -208 -56 -42 -251 -179 -346 -243 -128 -86 -437 -222 -570 -251 -240 -53 -534 -80 -882 -81 -195 -1 -258 -12 -335 -62 -37 -24 -31 -22 62 17 65 28 66 28 371 35 168 4 334 10 370 14 130 14 426 65 484 84 225 72 408 163 590 291 44 32 133 95 198 141 140 100 268 182 369 237 88 48 404 184 471 202 26 7 50 17 53 21 7 12 11 13 -86 -20z"/> <path d="M2920 2700 c-252 -93 -401 -177 -810 -460 -450 -310 -623 -400 -915 -478 l-100 -27 -405 0 c-387 -1 -408 -2 -470 -23 -69 -23 -147 -67 -192 -110 -38 -35 -35 -49 3 -15 55 51 148 101 222 119 60 16 98 18 222 14 83 -2 244 -4 360 -4 180 0 225 4 315 23 298 65 500 167 955 481 373 259 548 360 780 451 121 48 120 47 114 53 -2 2 -38 -8 -79 -24z"/> <path d="M2880 2596 c-209 -85 -347 -172 -605 -381 -96 -78 -135 -106 -408 -294 -146 -100 -294 -173 -477 -234 -211 -71 -302 -81 -620 -71 -345 10 -440 9 -527 -10 -72 -15 -209 -81 -235 -114 -12 -15 -11 -15 12 1 60 42 166 89 233 103 60 13 112 15 317 9 524 -15 628 -4 895 95 162 60 275 119 417 217 70 48 169 117 220 153 51 35 138 101 193 145 249 202 420 307 615 380 70 26 107 46 85 45 -6 -1 -57 -20 -115 -44z"/> <path d="M2925 2554 c-79 -34 -225 -131 -355 -235 -135 -108 -272 -206 -435 -309 -71 -45 -173 -111 -225 -145 -292 -192 -523 -318 -690 -376 -92 -32 -361 -38 -617 -14 -108 10 -232 16 -301 13 -101 -3 -125 -8 -177 -32 -67 -30 -125 -67 -125 -79 0 -4 19 5 43 21 122 82 237 97 537 67 231 -23 501 -23 594 -1 140 33 418 178 711 371 44 28 157 101 250 161 184 117 306 204 456 324 133 107 242 179 327 216 40 17 76 35 79 38 12 12 -13 5 -72 -20z"/> <path d="M2950 2498 c-19 -11 -87 -47 -150 -79 -135 -67 -175 -95 -278 -193 -203 -190 -377 -311 -787 -542 -287 -162 -357 -222 -411 -355 -38 -92 -42 -160 -15 -250 62 -205 205 -314 516 -392 77 -19 170 -40 207 -46 132 -22 208 -64 235 -130 29 -67 15 -263 -26 -396 -11 -33 -22 -73 -26 -90 -11 -48 9 -18 22 33 6 26 19 71 27 100 8 30 20 100 27 156 13 116 3 188 -32 237 -29 40 -130 86 -229 103 -135 23 -349 82 -425 116 -142 64 -235 160 -277 286 -41 125 -23 245 55 361 42 62 116 117 301 223 503 289 623 371 811 550 113 109 184 157 336 233 130 64 184 96 164 97 -5 0 -26 -10 -45 -22z"/> <path d="M2905 2436 c-178 -65 -283 -138 -367 -254 -132 -182 -341 -351 -588 -476 -88 -45 -297 -188 -402 -276 -113 -94 -145 -146 -155 -253 -13 -141 42 -272 143 -344 101 -71 159 -85 389 -93 164 -6 210 -11 255 -28 93 -34 130 -52 194 -92 34 -21 93 -54 131 -72 68 -32 74 -33 200 -33 126 0 263 22 290 46 13 12 8 12 -92 -13 -64 -16 -118 -22 -198 -22 -129 0 -173 14 -306 96 -179 109 -288 138 -507 137 -147 -1 -208 10 -286 48 -80 39 -123 79 -156 146 -56 115 -60 239 -9 344 34 71 270 256 469 368 225 127 278 160 354 220 105 82 223 203 280 285 25 36 71 87 103 113 62 52 203 125 296 153 31 10 57 21 57 26 0 10 11 13 -95 -26z"/> <path d="M2976 2429 c4 -8 -1 -9 -16 -4 -17 5 -21 4 -15 -6 6 -9 3 -11 -9 -6 -22 9 -104 -33 -177 -89 -31 -24 -110 -101 -175 -171 -248 -268 -386 -374 -699 -538 -71 -38 -155 -85 -186 -106 -77 -52 -153 -138 -197 -223 -33 -64 -36 -79 -36 -146 0 -60 6 -87 28 -135 67 -146 125 -168 461 -180 99 -4 209 -13 245 -21 66 -15 201 -85 292 -151 107 -78 237 -95 398 -54 104 27 114 30 109 36 -3 2 -47 -7 -99 -20 -172 -44 -286 -30 -401 49 -100 68 -228 134 -294 150 -36 10 -147 20 -280 25 -237 11 -278 18 -340 61 -60 41 -110 150 -110 241 0 57 5 76 39 142 59 117 157 205 322 292 363 190 515 308 805 619 78 84 167 159 221 187 64 33 54 16 -23 -36 -44 -30 -141 -121 -257 -242 -251 -260 -347 -339 -592 -483 -192 -112 -252 -154 -323 -220 -88 -82 -117 -141 -117 -235 0 -61 4 -77 29 -117 17 -26 41 -54 56 -64 35 -23 115 -40 248 -54 267 -27 397 -70 652 -217 93 -54 153 -73 228 -73 70 0 175 23 215 46 15 8 18 12 7 9 -74 -24 -176 -45 -220 -45 -77 0 -132 20 -278 103 -214 121 -339 160 -617 192 -166 18 -201 28 -244 66 -99 86 -87 246 25 358 73 73 116 103 302 215 173 104 279 176 382 260 27 23 43 31 35 20 -39 -55 -260 -228 -470 -366 -228 -149 -251 -175 -252 -281 -1 -69 14 -106 59 -149 32 -30 82 -44 303 -88 244 -48 315 -74 485 -175 49 -29 117 -61 150 -71 79 -24 250 -24 315 -1 25 9 32 14 17 11 -165 -30 -295 -21 -392 26 -33 16 -101 53 -151 83 -112 65 -210 97 -434 141 -244 49 -274 59 -307 103 -25 33 -28 44 -28 119 l0 83 40 42 c22 22 117 92 210 153 226 149 340 242 573 465 266 254 365 337 474 392 22 11 38 23 35 26 -9 8 -143 -74 -219 -136 -40 -32 -122 -106 -183 -164 -60 -58 -112 -104 -114 -102 -5 6 246 270 293 308 71 57 160 116 194 128 33 11 43 29 16 29 -8 0 -12 -5 -8 -11z m-517 -485 c-13 -14 -37 -35 -54 -46 -16 -11 -7 0 20 26 56 50 71 60 34 20z"/> <path d="M11 2400 c8 -4 86 -10 174 -13 120 -4 136 -3 65 3 -165 14 -253 17 -239 10z"/> <path d="M2945 2303 c-105 -70 -270 -217 -470 -418 -201 -202 -232 -229 -355 -310 -242 -157 -273 -179 -321 -225 -60 -57 -78 -113 -54 -164 19 -40 88 -74 200 -101 189 -46 402 -125 593 -223 l113 -57 132 1 c94 1 145 6 177 18 30 10 35 14 15 11 -236 -39 -299 -32 -460 50 -179 91 -397 172 -564 210 -93 22 -177 58 -190 84 -15 28 -14 77 3 110 24 46 90 98 290 229 187 122 196 129 421 351 254 251 332 321 449 405 79 56 95 79 21 29z"/> <path d="M2968 2282 c-35 -23 -406 -359 -488 -441 -36 -36 -98 -104 -139 -151 -40 -47 -106 -117 -146 -157 -40 -40 -80 -88 -89 -107 -49 -103 12 -227 147 -299 37 -19 94 -65 143 -114 82 -82 192 -152 216 -137 6 4 8 3 5 -3 -11 -17 89 -38 178 -37 76 1 188 25 200 44 3 4 -23 -1 -58 -13 -68 -22 -217 -27 -272 -9 -25 9 -17 10 50 11 86 1 250 26 275 42 16 11 19 11 -139 -16 -209 -37 -326 -2 -361 109 -18 55 -8 157 29 299 34 132 38 187 17 296 -12 60 -12 82 -2 122 23 87 113 192 252 295 73 55 188 113 199 102 3 -2 -40 -35 -94 -72 -122 -83 -213 -175 -248 -253 -24 -52 -28 -74 -34 -223 -4 -91 -15 -194 -23 -230 -47 -191 -44 -254 12 -327 43 -57 89 -73 217 -72 61 0 128 4 150 8 23 4 -17 6 -92 3 -162 -6 -209 5 -257 59 -62 68 -68 136 -24 304 14 55 23 132 28 245 5 111 13 179 23 208 34 91 102 161 268 280 47 34 86 68 86 77 0 19 3 19 -66 -9 -64 -26 -122 -63 -207 -132 -30 -25 -54 -41 -54 -37 0 3 -12 -4 -27 -18 l-28 -24 24 27 c14 16 27 26 29 23 6 -6 108 87 105 96 -1 4 8 15 20 25 21 19 21 19 7 0 -17 -23 -18 -23 89 47 43 29 86 57 97 64 10 6 14 12 7 12 -6 1 -48 -24 -92 -54 -44 -30 -84 -55 -88 -55 -12 0 88 87 139 122 27 17 46 34 43 36 -15 16 -186 -133 -446 -390 -160 -158 -267 -289 -319 -392 -71 -140 -11 -286 117 -286 55 0 108 22 123 50 12 23 16 342 5 360 -12 20 18 141 46 186 34 52 51 55 20 3 -30 -53 -34 -98 -17 -202 19 -107 17 -132 -26 -301 -25 -97 -29 -134 -26 -206 2 -75 7 -94 27 -122 34 -45 9 -26 -99 77 -47 45 -115 99 -153 119 -70 40 -106 77 -132 139 -34 81 -13 141 82 235 37 37 94 99 127 137 92 109 199 216 341 343 72 64 159 143 195 177 36 33 83 75 105 92 44 35 45 43 3 15z m-368 -407 c-13 -14 -20 -25 -16 -25 5 0 3 -7 -4 -15 -7 -8 -16 -13 -20 -10 -12 7 -47 -37 -72 -90 -22 -48 -23 -59 -20 -253 2 -112 0 -216 -3 -232 -5 -21 -16 -32 -46 -44 -81 -33 -155 -7 -191 64 -42 84 -11 179 111 340 71 94 270 304 280 295 2 -3 -6 -16 -19 -30z"/> <path d="M2375 1522 c-6 -4 -32 -38 -58 -77 -66 -99 -62 -144 16 -174 40 -15 75 2 94 46 21 48 23 173 4 196 -14 18 -39 22 -56 9z m55 -44 c14 -50 -1 -151 -26 -179 -21 -23 -55 -24 -94 -4 -44 23 -40 58 20 149 60 90 83 98 100 34z"/> <path d="M2351 1404 c-36 -41 -38 -73 -4 -85 19 -7 26 -3 39 17 19 29 24 95 8 101 -6 2 -26 -13 -43 -33z m41 -10 c-8 -56 -13 -65 -34 -62 -30 4 -31 17 -8 56 22 35 47 39 42 6z"/> <path d="M2900 2015 c-105 -80 -166 -145 -196 -210 -21 -44 -24 -65 -24 -180 0 -113 -4 -145 -32 -250 -23 -90 -31 -143 -32 -212 -1 -84 1 -93 24 -118 48 -53 102 -69 240 -71 l125 -2 -120 7 c-99 6 -130 12 -178 34 -47 21 -61 33 -74 64 -20 50 -12 137 27 294 25 99 30 137 30 242 0 145 12 191 70 261 39 47 65 69 184 161 33 25 55 45 50 45 -5 0 -47 -30 -94 -65z"/> <path d="M2893 1965 c-80 -66 -96 -84 -128 -147 -32 -67 -36 -82 -41 -188 -4 -68 -18 -169 -35 -247 -43 -199 -39 -252 28 -315 45 -43 99 -60 198 -64 l90 -3 -86 9 c-111 11 -182 41 -220 93 -38 52 -38 98 0 270 17 74 33 182 36 247 12 186 47 251 197 362 37 28 68 52 68 54 0 12 -25 -5 -107 -71z"/> <path d="M2964 1988 c-59 -44 -146 -134 -165 -171 -11 -20 -24 -72 -29 -115 -34 -267 -42 -324 -56 -386 -18 -83 -8 -149 32 -209 32 -49 75 -67 177 -72 l82 -5 -93 14 c-108 15 -137 32 -169 96 -29 55 -30 119 -4 248 11 54 24 153 31 222 6 69 17 145 25 170 16 49 77 126 128 162 30 21 29 19 -14 -37 -56 -71 -72 -102 -93 -175 -18 -65 -66 -386 -66 -444 0 -45 25 -93 68 -132 49 -45 182 -105 182 -83 0 5 -8 9 -17 9 -28 1 -99 36 -144 72 -47 38 -79 93 -79 137 0 39 46 351 61 416 18 75 62 155 121 220 28 31 53 64 54 71 3 18 2 18 -32 -8z"/> <path d="M2971 1866 c-39 -42 -91 -175 -91 -236 0 -30 -11 -95 -25 -145 -43 -156 -31 -227 48 -290 38 -31 97 -58 97 -46 0 5 -10 11 -22 14 -38 10 -105 65 -122 101 -22 46 -20 107 5 196 12 41 25 112 29 156 5 64 14 97 43 155 20 41 44 84 53 97 22 29 13 28 -15 -2z"/> <path d="M2982 1767 c-23 -27 -42 -87 -42 -130 0 -24 -11 -81 -25 -127 -31 -104 -32 -154 -2 -209 20 -38 87 -95 87 -74 0 4 -14 16 -30 25 -35 20 -69 87 -70 135 0 17 9 60 20 95 12 34 25 101 30 147 6 60 15 93 30 114 22 29 23 49 2 24z"/> <path d="M2992 1627 c-2 -67 -7 -98 -23 -129 -28 -56 -23 -139 11 -171 l23 -22 -21 36 c-27 46 -28 93 -2 153 17 37 20 62 17 133 l-3 88 -2 -88z"/> <path d="M463 1389 c-168 -21 -378 -92 -443 -148 -14 -11 14 -1 62 25 105 55 269 98 430 115 174 17 329 -1 487 -57 104 -38 185 -115 244 -233 61 -119 153 -269 190 -308 45 -48 162 -105 336 -163 169 -56 217 -78 273 -123 89 -71 115 -145 128 -357 l8 -145 -3 150 c-4 195 -18 246 -93 326 -59 64 -126 102 -247 139 -212 66 -335 123 -392 182 -39 41 -130 186 -182 293 -47 95 -134 191 -207 228 -142 72 -385 103 -591 76z"/> <path d="M1943 1368 c-73 -19 -110 -120 -60 -165 24 -23 85 -43 133 -43 61 0 81 58 45 135 -30 66 -65 87 -118 73z m91 -45 c34 -51 44 -114 21 -136 -20 -21 -47 -21 -113 -2 -81 25 -97 82 -38 141 26 26 42 34 70 34 30 0 39 -6 60 -37z"/> <path d="M395 1255 c-39 -7 -98 -23 -131 -37 -118 -47 -291 -173 -256 -185 10 -4 10 -8 0 -21 -12 -15 -11 -16 4 -3 10 7 16 17 13 21 -6 9 20 32 27 24 3 -3 22 6 42 20 62 42 151 66 243 66 101 0 164 -22 248 -85 81 -61 162 -99 270 -126 195 -48 309 -126 386 -266 73 -131 102 -153 307 -228 123 -45 198 -92 270 -168 60 -64 97 -136 111 -217 l10 -55 -4 58 c-5 84 -43 157 -122 236 -74 74 -153 117 -335 186 -119 44 -169 86 -223 186 -51 94 -131 175 -215 216 -36 18 -116 46 -178 63 -130 35 -167 52 -273 126 -42 30 -96 61 -120 70 -80 28 -226 19 -320 -20 -10 -5 -16 -2 -16 9 0 8 5 14 11 12 6 -2 37 7 68 20 94 38 192 48 269 29 35 -9 80 -28 99 -41 19 -13 61 -41 93 -63 31 -22 90 -53 130 -67 173 -65 205 -80 262 -120 79 -56 142 -125 209 -227 83 -128 94 -137 277 -204 166 -61 234 -98 305 -165 72 -70 108 -131 133 -231 11 -40 20 -61 20 -47 1 38 -27 128 -56 178 -64 110 -165 188 -321 246 -54 21 -122 46 -152 58 -87 33 -134 70 -181 144 -66 107 -105 154 -177 216 -78 68 -111 87 -239 133 -118 43 -159 64 -254 130 -129 91 -246 105 -396 49 -36 -14 -68 -24 -70 -22 -8 9 147 70 212 85 97 21 314 20 429 -2 103 -20 242 -73 293 -112 55 -42 90 -98 122 -199 43 -134 75 -190 150 -268 75 -78 144 -115 311 -167 206 -63 305 -121 347 -203 23 -45 28 -68 33 -172 5 -115 6 -118 14 -62 17 117 -13 236 -76 299 -50 50 -171 109 -318 155 -160 50 -214 78 -292 152 -75 70 -114 139 -163 289 -46 141 -110 203 -271 261 -157 57 -394 76 -559 46z m-298 -170 c-34 -23 -56 -23 -36 1 6 7 15 12 19 9 4 -3 10 2 14 10 3 8 12 12 21 9 11 -5 7 -11 -18 -29z"/> <path d="M723 1203 c-24 -9 -13 -46 25 -83 41 -38 110 -68 233 -98 42 -11 87 -27 102 -36 33 -22 47 -14 47 27 0 65 -43 97 -161 122 -39 8 -102 29 -139 45 -68 30 -83 33 -107 23z m126 -42 c23 -12 77 -29 119 -37 106 -20 151 -52 152 -106 0 -32 -9 -34 -49 -14 -15 8 -57 22 -92 30 -103 24 -179 56 -220 93 -79 72 -24 92 90 34z"/> <path d="M820 1131 c0 -22 61 -48 138 -60 42 -7 90 -19 105 -26 59 -30 66 -8 10 29 -24 15 -70 31 -123 40 -47 8 -95 18 -107 22 -14 4 -23 2 -23 -5z m95 -23 c102 -18 141 -29 165 -49 l25 -20 -25 12 c-13 6 -66 20 -116 30 -88 17 -134 33 -134 45 0 4 8 3 18 -1 9 -4 40 -12 67 -17z"/> <path d="M206 1099 c-55 -13 -149 -65 -182 -102 -28 -30 -28 -30 16 4 63 50 115 75 188 89 126 25 224 -4 347 -103 106 -85 149 -105 266 -123 96 -14 199 -47 187 -59 -3 -3 -28 3 -55 14 -28 11 -86 24 -129 30 -110 16 -139 26 -224 86 -136 94 -207 119 -346 120 -73 0 -87 -3 -155 -37 -41 -20 -86 -49 -99 -64 l-25 -27 35 25 c59 43 152 85 205 92 51 7 183 -12 239 -34 17 -6 70 -38 119 -71 110 -75 132 -85 232 -98 110 -15 195 -45 242 -86 37 -31 130 -171 121 -181 -3 -2 -25 25 -51 60 -96 130 -157 168 -316 191 -123 19 -116 16 -227 82 -122 72 -193 93 -316 93 -81 0 -108 -4 -160 -25 -35 -14 -76 -36 -93 -50 -22 -18 -8 -13 54 18 78 39 89 42 181 45 71 3 115 -1 157 -13 54 -15 85 -31 233 -113 41 -22 83 -34 165 -47 166 -26 232 -68 331 -212 21 -32 64 -83 94 -114 53 -53 62 -57 186 -97 162 -52 269 -114 322 -187 25 -34 52 -123 52 -172 0 -18 4 -33 8 -33 8 0 0 85 -12 131 -6 22 -5 21 9 -3 8 -15 19 -51 24 -80 9 -52 9 -53 10 -12 1 28 -9 60 -31 102 -37 73 -124 174 -145 170 -9 -2 -17 5 -18 15 -5 27 7 21 71 -37 64 -58 115 -140 145 -236 10 -30 18 -47 18 -38 1 32 -45 143 -83 201 -40 60 -120 128 -200 171 -25 13 -98 37 -161 51 -145 34 -178 60 -226 180 -61 148 -179 234 -360 259 -121 17 -143 27 -272 124 -71 54 -126 87 -159 97 -56 16 -151 18 -212 4z m878 -329 c21 -16 51 -46 66 -67 32 -43 77 -148 59 -137 -7 4 -10 1 -7 -7 3 -8 10 -13 16 -12 7 2 9 -5 5 -15 -3 -9 -3 -14 2 -10 4 4 26 -8 47 -28 46 -41 65 -49 166 -70 80 -16 216 -73 194 -81 -6 -3 -10 -9 -7 -13 3 -5 -21 3 -53 18 -33 15 -56 28 -51 30 4 2 26 -6 49 -18 23 -12 44 -20 46 -17 9 8 -98 51 -130 51 -19 1 -32 4 -30 7 2 3 -22 12 -54 19 -31 6 -73 22 -92 33 -19 12 -38 21 -42 20 -13 -5 -79 81 -73 95 9 25 -76 162 -124 198 -24 19 -40 34 -35 34 5 0 26 -14 48 -30z"/> <path d="M210 954 c-67 -8 -125 -25 -168 -51 -24 -13 -41 -27 -38 -30 3 -3 19 5 36 17 50 36 117 51 226 51 126 0 198 -18 323 -81 67 -34 134 -58 219 -79 156 -38 196 -61 263 -153 64 -89 142 -172 189 -202 19 -13 85 -40 145 -61 141 -48 196 -78 261 -141 53 -52 66 -80 84 -184 7 -43 8 -44 9 -9 5 149 -117 269 -349 344 -156 51 -202 85 -300 220 -64 88 -116 140 -159 157 -14 6 -82 25 -151 43 -81 21 -160 50 -225 83 -123 61 -254 89 -365 76z"/> <path d="M108 906 c-58 -25 -107 -55 -108 -68 0 -4 16 4 36 17 19 13 61 34 92 46 49 18 71 20 152 16 107 -6 163 -23 296 -90 53 -27 136 -57 195 -72 56 -15 117 -32 134 -39 43 -18 97 -68 150 -137 47 -62 57 -83 27 -56 -30 27 -103 53 -202 72 -135 25 -236 59 -305 101 -194 119 -266 146 -390 146 -65 1 -91 -4 -133 -23 -29 -13 -52 -27 -52 -31 0 -4 24 4 53 17 115 54 287 23 452 -81 119 -76 183 -101 348 -135 175 -37 224 -61 260 -127 36 -65 34 -75 -4 -29 -59 72 -215 127 -434 153 -207 25 -265 43 -384 124 -90 60 -164 75 -242 49 -42 -14 -61 -30 -28 -23 l24 5 -22 -12 c-13 -7 -23 -16 -23 -21 0 -5 12 -1 26 8 43 29 130 24 189 -10 187 -108 249 -130 425 -151 69 -8 148 -21 175 -28 l50 -14 -39 -7 c-21 -4 -41 -5 -44 -2 -3 3 3 6 13 6 53 0 -9 11 -161 29 -193 23 -263 42 -353 95 -97 56 -121 64 -182 58 -43 -4 -49 -7 -29 -13 l25 -7 -25 -1 c-14 0 -32 3 -39 8 -17 11 4 17 69 24 30 3 28 4 -10 5 -25 1 -56 -5 -69 -12 -23 -13 -23 -14 -5 -24 17 -10 17 -11 2 -12 -10 0 -18 -4 -18 -9 0 -6 12 -6 30 1 17 5 60 8 95 6 59 -4 69 -8 122 -51 32 -26 87 -61 121 -79 57 -27 78 -32 190 -39 160 -10 195 -16 257 -44 71 -31 109 -67 155 -144 43 -72 70 -169 70 -253 0 -28 5 -48 11 -48 13 0 4 97 -17 185 -18 72 -81 182 -126 221 -45 37 -123 72 -188 83 l-55 9 51 1 c67 1 199 -33 247 -65 21 -14 53 -46 70 -72 53 -78 127 -150 217 -210 58 -39 95 -73 118 -106 17 -26 32 -44 32 -39 0 27 -65 103 -119 138 -34 21 -59 41 -56 43 9 9 142 -50 187 -83 26 -19 56 -52 67 -72 11 -21 20 -32 21 -25 1 41 -51 95 -135 141 -53 28 -5 16 56 -15 47 -23 119 -97 119 -121 0 -7 5 -13 10 -13 13 0 -2 31 -36 76 -31 42 -89 75 -199 113 -103 37 -121 51 -181 143 -87 135 -225 200 -492 234 -150 18 -255 50 -346 105 -113 68 -152 82 -210 76 -34 -4 -43 -3 -26 3 72 24 145 6 240 -59 108 -74 156 -89 372 -115 125 -16 267 -51 343 -85 53 -25 94 -67 141 -147 52 -88 76 -110 142 -129 122 -34 173 -58 222 -104 28 -26 50 -56 50 -67 0 -10 5 -26 11 -34 7 -11 8 -6 3 20 -15 80 -89 136 -239 181 -83 25 -106 37 -132 66 -40 44 -44 67 -5 31 37 -35 73 -52 166 -77 138 -38 206 -93 232 -189 11 -40 13 -42 13 -17 1 17 -13 54 -29 82 -34 60 -98 103 -190 129 -166 47 -197 70 -255 184 -19 38 -35 72 -35 76 0 3 19 -13 42 -36 50 -49 103 -78 235 -125 160 -57 265 -141 303 -241 11 -30 20 -64 20 -74 0 -11 4 -20 9 -20 10 0 -3 66 -24 115 -33 82 -147 172 -275 220 -154 57 -180 69 -226 104 -26 20 -81 81 -123 136 -93 122 -138 152 -283 187 -64 16 -148 47 -222 82 -147 70 -206 86 -316 86 -66 -1 -98 -6 -142 -24z m215 -309 c6 3 7 1 3 -5 -4 -6 1 -10 11 -10 10 1 43 -7 73 -16 30 -10 123 -25 205 -35 l150 -17 -130 -8 c-181 -11 -266 13 -360 99 l-40 36 39 -25 c22 -14 44 -22 49 -19z m623 -116 c79 -37 134 -88 194 -176 26 -39 59 -77 74 -85 22 -11 24 -15 11 -23 -23 -12 -84 40 -154 132 -32 42 -66 82 -75 90 -8 7 -13 18 -10 23 3 5 -2 8 -12 6 -12 -2 -18 2 -16 11 2 9 -3 11 -13 7 -10 -4 -14 -2 -9 5 4 8 -1 9 -17 4 -19 -5 -21 -4 -9 5 12 9 9 10 -15 6 -23 -5 -27 -4 -15 4 12 9 7 10 -20 6 -26 -5 -30 -4 -15 3 30 14 35 13 101 -18z"/> <path d="M340 574 c0 -18 193 -65 257 -63 33 2 34 3 8 6 -86 10 -165 26 -212 43 -29 10 -53 17 -53 14z"/> <path d="M1026 399 c22 -24 60 -69 85 -99 48 -59 63 -75 94 -91 11 -6 5 1 -13 16 -17 15 -62 65 -98 111 -36 46 -76 89 -87 95 -14 7 -7 -5 19 -32z"/> <path d="M12 632 c-7 -5 14 -6 46 -4 68 5 85 -2 195 -81 91 -65 148 -82 322 -97 203 -17 244 -31 311 -102 64 -67 92 -134 119 -283 7 -38 13 -57 14 -40 1 51 -27 165 -58 231 -34 72 -97 139 -158 166 -23 10 -80 23 -125 28 -46 5 -128 14 -183 20 -114 12 -170 34 -261 103 -33 26 -73 51 -88 57 -32 12 -116 13 -134 2z"/> <path d="M22 610 c-12 -5 -22 -12 -22 -14 0 -3 10 -2 22 3 32 11 86 -9 150 -57 102 -76 209 -114 363 -127 191 -16 251 -39 326 -123 54 -61 75 -109 93 -213 l15 -84 -6 70 c-11 144 -83 260 -196 314 -50 25 -83 32 -172 41 -204 19 -309 50 -400 119 -85 64 -136 85 -173 71z"/> <path d="M6 571 c-3 -4 5 -6 18 -4 29 6 72 -16 150 -77 112 -87 205 -120 341 -120 156 0 230 -22 308 -90 61 -54 97 -126 108 -213 l8 -72 -3 71 c-4 87 -32 151 -96 212 -79 76 -127 93 -297 102 -196 10 -248 28 -363 120 -86 69 -157 99 -174 71z"/> <path d="M20 531 l25 -7 -25 -7 -25 -8 30 -13 c17 -7 79 -45 138 -84 120 -80 195 -108 380 -144 62 -12 127 -28 146 -35 51 -21 128 -100 167 -170 36 -64 64 -82 64 -40 -1 21 -1 22 -15 3 -18 -23 -19 -16 -4 17 17 37 -44 162 -102 209 -83 67 -138 84 -326 98 -141 11 -184 26 -293 102 -79 55 -143 88 -167 87 -12 -1 -10 -3 7 -8z m34 -23 c-5 -8 -2 -9 10 -5 11 5 15 3 10 -5 -5 -8 -2 -9 10 -5 11 5 15 3 10 -4 -4 -7 -1 -10 7 -7 19 7 71 -31 62 -44 -4 -7 0 -9 10 -5 10 4 16 2 14 -6 -1 -7 7 -12 18 -12 11 -1 19 -7 17 -14 -2 -9 3 -11 13 -7 11 4 14 2 9 -6 -5 -8 -2 -9 10 -5 11 5 15 3 10 -5 -5 -8 -2 -9 10 -5 11 5 15 3 10 -5 -5 -8 -2 -9 10 -5 11 5 15 3 10 -5 -5 -7 0 -9 14 -6 13 4 20 2 16 -4 -4 -6 9 -7 33 -4 27 4 31 3 13 -2 -19 -7 4 -13 95 -26 237 -34 318 -76 383 -201 12 -22 21 -35 21 -30 1 23 -61 115 -97 144 -61 47 -126 70 -257 90 -85 13 -106 19 -73 20 63 1 189 -17 240 -35 70 -24 136 -82 169 -148 18 -36 27 -67 23 -79 -4 -12 -2 -17 4 -13 6 4 8 -2 5 -14 -4 -16 -12 -9 -40 38 -74 123 -122 153 -310 192 -224 47 -262 62 -411 164 -46 31 -89 56 -95 56 -7 0 -6 4 3 10 20 13 23 12 14 -2z"/> <path d="M2810 476 c-189 -52 -244 -79 -356 -176 -80 -69 -91 -83 -136 -174 -26 -55 -48 -106 -47 -115 0 -9 8 2 18 24 67 154 79 172 166 249 105 94 181 132 355 180 195 53 198 54 175 54 -11 1 -90 -19 -175 -42z"/> <path d="M2901 429 c-178 -48 -351 -136 -416 -211 -53 -62 -135 -187 -135 -206 0 -9 16 10 35 43 20 33 59 89 88 124 82 102 233 184 435 236 45 12 85 25 89 28 11 11 -18 7 -96 -14z"/> <path d="M2893 376 c-104 -43 -174 -83 -271 -155 -87 -65 -193 -165 -211 -199 -6 -12 23 13 66 56 133 134 296 242 465 307 35 13 56 24 48 24 -8 0 -52 -15 -97 -33z"/> <path d="M26 380 c17 -11 50 -43 73 -70 24 -28 64 -61 90 -74 58 -30 155 -50 213 -44 67 7 183 -9 225 -31 41 -21 74 -63 98 -126 l15 -40 -6 35 c-7 40 -33 86 -66 117 -42 40 -104 55 -243 59 -185 5 -216 17 -320 114 -46 44 -90 80 -97 80 -7 0 1 -9 18 -20z"/> <path d="M980 356 c0 -8 11 -31 25 -51 33 -50 84 -185 95 -253 l9 -57 -3 60 c-4 65 -42 170 -88 246 -30 50 -33 59 -18 59 5 0 21 -21 36 -47 36 -63 77 -107 144 -153 63 -44 111 -92 133 -135 9 -17 16 -24 17 -16 1 37 -52 91 -190 194 -42 31 -53 44 -105 129 -22 35 -55 50 -55 24z"/> <path d="M30 305 c77 -127 104 -145 256 -165 43 -6 93 -15 110 -21 37 -11 79 -53 94 -93 6 -16 13 -26 16 -23 4 3 -5 25 -18 49 -33 60 -80 83 -213 102 -121 18 -141 28 -193 97 -18 24 -44 58 -57 74 -21 24 -19 21 5 -20z"/> <path d="M2960 336 c-156 -58 -420 -241 -462 -320 -6 -11 25 13 68 54 115 110 285 219 392 250 23 7 42 17 42 22 0 4 -1 8 -2 7 -2 0 -19 -6 -38 -13z"/> <path d="M2922 230 c-120 -65 -322 -214 -308 -227 2 -3 33 20 69 50 82 70 165 126 247 167 72 36 75 38 69 44 -3 3 -37 -13 -77 -34z"/> <path d="M0 213 c1 -22 35 -46 114 -79 87 -36 136 -79 136 -117 0 -10 5 -17 10 -17 17 0 -18 73 -47 96 -14 12 -58 34 -97 49 -39 15 -81 38 -93 52 -13 13 -23 20 -23 16z"/> <path d="M2934 122 c-70 -43 -165 -114 -160 -119 2 -2 39 22 82 53 44 31 94 63 112 72 17 9 32 19 32 24 0 11 1 12 -66 -30z"/> <path d="M0 145 c0 -5 13 -23 30 -40 16 -17 38 -48 49 -70 11 -22 20 -33 21 -24 0 8 -13 35 -28 60 -30 45 -72 89 -72 74z"/> <path d="M556 118 c-17 -23 -21 -85 -8 -103 14 -20 34 -16 27 5 -3 11 -2 28 4 37 6 10 11 13 11 6 0 -19 20 -66 26 -61 7 7 -26 88 -36 88 -4 0 -12 -17 -18 -37 l-10 -38 -1 38 c-1 43 13 77 32 77 17 0 38 -36 53 -90 7 -25 13 -36 13 -24 1 28 -18 85 -37 107 -20 23 -38 22 -56 -5z"/> <path d="M1150 85 c-9 -25 -3 -85 9 -85 3 0 5 20 3 45 -3 36 0 46 14 52 13 5 30 -7 67 -47 39 -42 46 -47 34 -23 -20 39 -72 83 -98 83 -12 0 -23 -10 -29 -25z"/> <path d="M1196 53 c-9 -10 -7 -53 3 -53 5 0 7 9 4 20 -7 27 23 27 37 -1 7 -11 14 -18 17 -15 7 7 -15 34 -37 46 -10 5 -20 6 -24 3z"/> <path d="M2952 34 c-24 -14 -41 -28 -39 -31 5 -4 87 46 87 53 0 6 -3 5 -48 -22z"/> </g> </svg> 